<svg version="1.1" id="Layer_1" xmlns="http://www.w3.org/2000/svg" xmlns:xlink="http://www.w3.org/1999/xlink" x="0px" y="0px"
	 width="100%" viewBox="0 0 200 200" enable-background="new 0 0 200 200" xml:space="preserve">
<path fill="#FFFFFF" opacity="0.000000" stroke="none" 
	d="
M101.000000,201.000000 
	C67.354073,201.000000 34.208145,201.000000 1.031109,201.000000 
	C1.031109,134.395767 1.031109,67.791527 1.031109,1.093641 
	C67.562431,1.093641 134.125046,1.093641 200.843826,1.093641 
	C200.843826,67.666382 200.843826,134.333145 200.843826,201.000000 
	C167.791809,201.000000 134.645905,201.000000 101.000000,201.000000 
M19.714729,103.499489 
	C19.721382,110.652161 19.647795,117.806107 19.761564,124.957077 
	C19.843897,130.132034 21.877304,132.143478 27.082201,132.214737 
	C34.399837,132.314926 41.721069,132.318573 49.038502,132.210388 
	C54.134087,132.135040 56.475136,130.096664 56.531368,124.952820 
	C56.705929,108.986221 56.712505,93.015152 56.529427,77.048737 
	C56.468487,71.734383 54.093948,69.838219 48.538189,69.779449 
	C41.552612,69.705566 34.565132,69.708183 27.579475,69.778008 
	C21.759565,69.836174 19.804459,71.757782 19.747898,77.548470 
	C19.666670,85.864792 19.719316,94.182411 19.714729,103.499489 
M177.723068,101.936356 
	C178.297455,96.842087 178.871841,91.747826 179.429123,86.805405 
	C175.920395,86.614670 173.679031,86.467087 171.435349,86.376610 
	C167.637390,86.223473 164.342133,89.069351 164.503174,92.657867 
	C164.678314,96.560364 166.991028,98.690704 170.859863,98.970123 
	C172.132492,99.062042 173.432785,98.771149 174.720428,98.655312 
	C174.776611,99.198700 174.832794,99.742081 174.888977,100.285469 
	C173.009247,100.521957 171.125595,100.731491 169.251282,101.005066 
	C168.129990,101.168739 167.023331,101.432648 165.910095,101.651497 
	C166.873932,102.483078 167.880371,104.059692 168.793671,104.007477 
	C171.609039,103.846497 174.388824,103.063385 177.723068,101.936356 
M125.256531,86.490814 
	C124.635628,85.724670 124.027878,84.947388 123.390335,84.195358 
	C122.674545,83.351021 121.931839,82.529510 121.200844,81.698074 
	C120.567421,82.645782 119.423447,83.574089 119.386559,84.544472 
	C119.199753,89.458389 119.300583,94.383232 119.300583,99.267456 
	C130.882385,99.482918 133.284363,98.482170 133.663132,93.584244 
	C133.982880,89.449730 131.435944,87.022598 125.256531,86.490814 
M106.682938,83.912376 
	C105.845398,83.181297 105.007866,82.450226 104.170326,81.719147 
	C103.665390,82.427200 102.744743,83.122971 102.723419,83.845306 
	C102.591125,88.326065 102.567398,92.816582 102.749474,97.294022 
	C102.782234,98.099640 103.938812,98.859566 104.576523,99.640587 
	C105.280373,98.760529 106.325844,97.976204 106.605774,96.977348 
	C106.997948,95.577934 106.452049,93.861977 106.999733,92.576363 
	C107.457932,91.500824 108.909653,90.848534 109.921425,90.008820 
	C110.637314,90.950714 111.738434,91.804436 111.978920,92.855141 
	C112.340935,94.436790 111.973755,96.172333 112.180946,97.808975 
	C112.261238,98.443192 112.969933,99.316475 113.559738,99.481071 
	C114.193672,99.657982 115.669479,99.137238 115.671814,98.909584 
	C115.705322,95.639481 116.207169,92.134201 115.161285,89.196373 
	C114.654175,87.771942 111.125648,87.489479 109.038795,86.529633 
	C108.160072,86.125465 107.471947,85.306892 106.682938,83.912376 
M150.704987,99.270866 
	C155.162003,101.427650 153.081924,95.500923 154.995728,95.297859 
	C157.844223,97.134369 160.270035,98.698357 162.695847,100.262344 
	C163.023941,99.799866 163.352036,99.337379 163.680130,98.874901 
	C162.102142,96.644638 160.524139,94.414375 158.920441,92.147781 
	C160.574951,90.262054 162.043549,88.588234 163.512131,86.914406 
	C163.194412,86.472870 162.876678,86.031326 162.558960,85.589790 
	C159.787048,87.182739 157.015121,88.775696 153.948547,90.537987 
	C153.948547,87.594673 153.948547,84.851952 153.948547,82.109222 
	C153.463501,81.837219 152.978470,81.565216 152.493423,81.293213 
	C151.691895,82.433395 150.257950,83.542664 150.200409,84.719223 
	C149.974533,89.338821 150.182358,93.979622 150.704987,99.270866 
M72.491264,94.105949 
	C75.090057,100.309509 79.355347,101.566971 84.564224,97.910034 
	C84.376213,96.711975 83.688881,95.306580 84.127098,94.627480 
	C86.454506,91.020630 85.647964,88.145935 81.637779,86.766708 
	C77.078514,85.198624 73.686920,87.619812 72.491264,94.105949 
M139.245346,90.196930 
	C138.330215,87.982536 137.773819,85.194603 134.024109,87.015968 
	C135.845657,91.534142 137.605469,95.899139 139.369385,100.274338 
	C137.107040,101.064667 135.492538,101.628685 133.223480,102.421356 
	C137.802231,105.181267 140.247940,105.040344 141.911148,101.824554 
	C144.390030,97.031631 146.368317,91.979805 148.752274,86.603668 
	C142.371979,85.911591 144.330994,92.282547 141.007217,93.949409 
	C140.523560,92.917435 140.044693,91.895668 139.245346,90.196930 
M99.220573,87.845787 
	C94.358223,85.600174 90.117592,86.313629 88.439003,89.952805 
	C86.985863,93.103233 87.309273,96.150475 90.358002,98.387650 
	C93.777611,100.896996 97.182831,100.300041 100.680405,96.045036 
	C99.074692,95.925194 97.978668,95.873970 96.890099,95.754715 
	C95.393616,95.590767 93.480927,95.852066 92.547455,95.026070 
	C91.842918,94.402649 91.831032,91.697250 92.522797,91.109467 
	C93.482224,90.294258 95.419563,90.325455 96.884361,90.485901 
	C98.757301,90.691055 100.726181,91.586975 99.220573,87.845787 
M70.814262,88.568634 
	C69.601608,87.113625 68.566788,85.422966 67.094559,84.311913 
	C66.445442,83.822052 64.499153,84.096848 63.850140,84.739670 
	C61.888847,86.682251 63.103252,97.571854 65.539734,98.791084 
	C67.130135,99.586937 69.295898,99.233002 71.203926,99.394119 
	C66.446625,93.960167 66.275246,91.677818 70.814262,88.568634 
z"/>
<path fill="#323232" opacity="1.000000" stroke="none" 
	d="
M19.714771,102.999481 
	C19.719316,94.182411 19.666670,85.864792 19.747898,77.548470 
	C19.804459,71.757782 21.759565,69.836174 27.579475,69.778008 
	C34.565132,69.708183 41.552612,69.705566 48.538189,69.779449 
	C54.093948,69.838219 56.468487,71.734383 56.529427,77.048737 
	C56.712505,93.015152 56.705929,108.986221 56.531368,124.952820 
	C56.475136,130.096664 54.134087,132.135040 49.038502,132.210388 
	C41.721069,132.318573 34.399837,132.314926 27.082201,132.214737 
	C21.877304,132.143478 19.843897,130.132034 19.761564,124.957077 
	C19.647795,117.806107 19.721382,110.652161 19.714771,102.999481 
M53.720459,83.535583 
	C53.720409,82.205505 53.723820,80.875412 53.719734,79.545341 
	C53.699738,73.035591 53.364887,72.675568 47.060116,72.657616 
	C40.742229,72.639626 34.419823,72.797165 28.107910,72.602211 
	C24.120840,72.479073 22.246946,73.983315 22.261312,78.047958 
	C22.315374,93.343834 22.315634,108.640121 22.260981,123.935997 
	C22.246510,127.986099 24.087152,129.524384 28.088228,129.405334 
	C34.566692,129.212631 41.066425,129.118439 47.535614,129.430206 
	C52.485443,129.668747 53.859482,127.539101 53.788555,122.930573 
	C53.591572,110.131470 53.720608,97.327339 53.720459,83.535583 
z"/>
<path fill="#40D081" opacity="1.000000" stroke="none" 
	d="
M177.452759,102.229156 
	C174.388824,103.063385 171.609039,103.846497 168.793671,104.007477 
	C167.880371,104.059692 166.873932,102.483078 165.910095,101.651497 
	C167.023331,101.432648 168.129990,101.168739 169.251282,101.005066 
	C171.125595,100.731491 173.009247,100.521957 174.888977,100.285469 
	C174.832794,99.742081 174.776611,99.198700 174.720428,98.655312 
	C173.432785,98.771149 172.132492,99.062042 170.859863,98.970123 
	C166.991028,98.690704 164.678314,96.560364 164.503174,92.657867 
	C164.342133,89.069351 167.637390,86.223473 171.435349,86.376610 
	C173.679031,86.467087 175.920395,86.614670 179.429123,86.805405 
	C178.871841,91.747826 178.297455,96.842087 177.452759,102.229156 
M168.438675,92.439575 
	C168.864456,95.389252 170.633713,96.726059 173.212631,95.249229 
	C174.146530,94.714424 174.839554,91.615219 174.239075,90.946716 
	C172.437485,88.940956 170.183929,89.080582 168.438675,92.439575 
z"/>
<path fill="#47D286" opacity="1.000000" stroke="none" 
	d="
M125.676270,86.431900 
	C131.435944,87.022598 133.982880,89.449730 133.663132,93.584244 
	C133.284363,98.482170 130.882385,99.482918 119.300583,99.267456 
	C119.300583,94.383232 119.199753,89.458389 119.386559,84.544472 
	C119.423447,83.574089 120.567421,82.645782 121.200844,81.698074 
	C121.931839,82.529510 122.674545,83.351021 123.390335,84.195358 
	C124.027878,84.947388 124.635628,85.724670 125.676270,86.431900 
M129.116287,91.172333 
	C127.434906,91.039612 125.695328,90.631912 124.112923,90.966812 
	C123.715530,91.050919 123.369133,93.712166 123.846954,94.825089 
	C124.202248,95.652588 126.673714,96.551994 126.912621,96.281212 
	C128.014496,95.032295 128.664291,93.384537 129.116287,91.172333 
z"/>
<path fill="#45D184" opacity="1.000000" stroke="none" 
	d="
M106.690063,84.294533 
	C107.471947,85.306892 108.160072,86.125465 109.038795,86.529633 
	C111.125648,87.489479 114.654175,87.771942 115.161285,89.196373 
	C116.207169,92.134201 115.705322,95.639481 115.671814,98.909584 
	C115.669479,99.137238 114.193672,99.657982 113.559738,99.481071 
	C112.969933,99.316475 112.261238,98.443192 112.180946,97.808975 
	C111.973755,96.172333 112.340935,94.436790 111.978920,92.855141 
	C111.738434,91.804436 110.637314,90.950714 109.921425,90.008820 
	C108.909653,90.848534 107.457932,91.500824 106.999733,92.576363 
	C106.452049,93.861977 106.997948,95.577934 106.605774,96.977348 
	C106.325844,97.976204 105.280373,98.760529 104.576523,99.640587 
	C103.938812,98.859566 102.782234,98.099640 102.749474,97.294022 
	C102.567398,92.816582 102.591125,88.326065 102.723419,83.845306 
	C102.744743,83.122971 103.665390,82.427200 104.170326,81.719147 
	C105.007866,82.450226 105.845398,83.181297 106.690063,84.294533 
z"/>
<path fill="#45D184" opacity="1.000000" stroke="none" 
	d="
M150.467056,98.941711 
	C150.182358,93.979622 149.974533,89.338821 150.200409,84.719223 
	C150.257950,83.542664 151.691895,82.433395 152.493423,81.293213 
	C152.978470,81.565216 153.463501,81.837219 153.948547,82.109222 
	C153.948547,84.851952 153.948547,87.594673 153.948547,90.537987 
	C157.015121,88.775696 159.787048,87.182739 162.558960,85.589790 
	C162.876678,86.031326 163.194412,86.472870 163.512131,86.914406 
	C162.043549,88.588234 160.574951,90.262054 158.920441,92.147781 
	C160.524139,94.414375 162.102142,96.644638 163.680130,98.874901 
	C163.352036,99.337379 163.023941,99.799866 162.695847,100.262344 
	C160.270035,98.698357 157.844223,97.134369 154.995728,95.297859 
	C153.081924,95.500923 155.162003,101.427650 150.467056,98.941711 
z"/>
<path fill="#41D082" opacity="1.000000" stroke="none" 
	d="
M72.431038,93.744095 
	C73.686920,87.619812 77.078514,85.198624 81.637779,86.766708 
	C85.647964,88.145935 86.454506,91.020630 84.127098,94.627480 
	C83.688881,95.306580 84.376213,96.711975 84.564224,97.910034 
	C79.355347,101.566971 75.090057,100.309509 72.431038,93.744095 
z"/>
<path fill="#43D183" opacity="1.000000" stroke="none" 
	d="
M139.405579,90.535416 
	C140.044693,91.895668 140.523560,92.917435 141.007217,93.949409 
	C144.330994,92.282547 142.371979,85.911591 148.752274,86.603668 
	C146.368317,91.979805 144.390030,97.031631 141.911148,101.824554 
	C140.247940,105.040344 137.802231,105.181267 133.223480,102.421356 
	C135.492538,101.628685 137.107040,101.064667 139.369385,100.274338 
	C137.605469,95.899139 135.845657,91.534142 134.024109,87.015968 
	C137.773819,85.194603 138.330215,87.982536 139.405579,90.535416 
z"/>
<path fill="#44D184" opacity="1.000000" stroke="none" 
	d="
M99.488617,88.067093 
	C100.726181,91.586975 98.757301,90.691055 96.884361,90.485901 
	C95.419563,90.325455 93.482224,90.294258 92.522797,91.109467 
	C91.831032,91.697250 91.842918,94.402649 92.547455,95.026070 
	C93.480927,95.852066 95.393616,95.590767 96.890099,95.754715 
	C97.978668,95.873970 99.074692,95.925194 100.680405,96.045036 
	C97.182831,100.300041 93.777611,100.896996 90.358002,98.387650 
	C87.309273,96.150475 86.985863,93.103233 88.439003,89.952805 
	C90.117592,86.313629 94.358223,85.600174 99.488617,88.067093 
z"/>
<path fill="#45D184" opacity="1.000000" stroke="none" 
	d="
M70.687363,88.945007 
	C66.275246,91.677818 66.446625,93.960167 71.203926,99.394119 
	C69.295898,99.233002 67.130135,99.586937 65.539734,98.791084 
	C63.103252,97.571854 61.888847,86.682251 63.850140,84.739670 
	C64.499153,84.096848 66.445442,83.822052 67.094559,84.311913 
	C68.566788,85.422966 69.601608,87.113625 70.687363,88.945007 
z"/>
<path fill="#CCCDCD" opacity="1.000000" stroke="none" 
	d="
M53.720650,84.030396 
	C53.720608,97.327339 53.591572,110.131470 53.788555,122.930573 
	C53.859482,127.539101 52.485443,129.668747 47.535614,129.430206 
	C41.066425,129.118439 34.566692,129.212631 28.088228,129.405334 
	C24.087152,129.524384 22.246510,127.986099 22.260981,123.935997 
	C22.315634,108.640121 22.315374,93.343834 22.261312,78.047958 
	C22.246946,73.983315 24.120840,72.479073 28.107910,72.602211 
	C34.419823,72.797165 40.742229,72.639626 47.060116,72.657616 
	C53.364887,72.675568 53.699738,73.035591 53.719734,79.545341 
	C53.723820,80.875412 53.720409,82.205505 53.720650,84.030396 
M46.279778,98.323135 
	C47.013680,97.800957 47.747581,97.278778 48.481483,96.756599 
	C45.120686,95.253525 41.846992,92.815941 38.376251,92.492439 
	C34.363407,92.118401 30.226173,93.688858 27.330978,98.778152 
	C29.629963,98.386444 30.818321,98.183968 32.198292,98.744469 
	C32.241848,99.710922 32.285408,100.677383 32.288067,100.736435 
	C36.690350,100.736435 40.502335,100.736435 44.829559,100.736435 
	C44.909840,100.448853 45.247486,99.239334 46.279778,98.323135 
M40.553730,127.259689 
	C41.192425,125.574364 42.834946,123.174309 42.253525,122.357712 
	C41.161022,120.823288 38.722736,119.374466 36.962856,119.503998 
	C35.846817,119.586159 34.049660,122.632111 34.137856,124.263466 
	C34.310825,127.463013 36.759296,128.542526 40.553730,127.259689 
M34.745613,75.962791 
	C33.809441,76.313705 32.873268,76.664612 31.937098,77.015526 
	C32.074894,77.615463 32.212692,78.215408 32.350491,78.815346 
	C35.453835,78.621727 38.557178,78.428101 41.660522,78.234474 
	C41.646854,77.578400 41.633183,76.922325 41.619511,76.266243 
	C39.619392,76.163605 37.619270,76.060966 34.745613,75.962791 
z"/>
<path fill="#ECFAF2" opacity="1.000000" stroke="none" 
	d="
M168.535950,92.079224 
	C170.183929,89.080582 172.437485,88.940956 174.239075,90.946716 
	C174.839554,91.615219 174.146530,94.714424 173.212631,95.249229 
	C170.633713,96.726059 168.864456,95.389252 168.535950,92.079224 
z"/>
<path fill="#E9F9F0" opacity="1.000000" stroke="none" 
	d="
M129.296234,91.526054 
	C128.664291,93.384537 128.014496,95.032295 126.912621,96.281212 
	C126.673714,96.551994 124.202248,95.652588 123.846954,94.825089 
	C123.369133,93.712166 123.715530,91.050919 124.112923,90.966812 
	C125.695328,90.631912 127.434906,91.039612 129.296234,91.526054 
z"/>
<path fill="#41CC80" opacity="1.000000" stroke="none" 
	d="
M32.006680,97.981491 
	C30.818321,98.183968 29.629963,98.386444 27.330978,98.778152 
	C30.226173,93.688858 34.363407,92.118401 38.376251,92.492439 
	C41.846992,92.815941 45.120686,95.253525 48.481483,96.756599 
	C47.747581,97.278778 47.013680,97.800957 45.934986,98.197281 
	C45.590195,98.071419 45.539806,98.006508 45.298450,97.700378 
	C41.428093,95.360680 37.799873,93.304649 33.989212,97.010284 
	C34.008110,97.014008 34.017982,96.976768 33.693405,96.888428 
	C32.902813,97.200905 32.436806,97.601715 31.985600,98.006317 
	C32.000401,98.010109 32.006680,97.981491 32.006680,97.981491 
z"/>
<path fill="#78797C" opacity="1.000000" stroke="none" 
	d="
M40.219860,127.455574 
	C36.759296,128.542526 34.310825,127.463013 34.137856,124.263466 
	C34.049660,122.632111 35.846817,119.586159 36.962856,119.503998 
	C38.722736,119.374466 41.161022,120.823288 42.253525,122.357712 
	C42.834946,123.174309 41.192425,125.574364 40.219860,127.455574 
z"/>
<path fill="#47CD83" opacity="1.000000" stroke="none" 
	d="
M45.539806,98.006508 
	C45.539806,98.006508 45.590195,98.071419 45.587666,98.050613 
	C45.247486,99.239334 44.909840,100.448853 44.829559,100.736435 
	C40.502335,100.736435 36.690350,100.736435 32.288067,100.736435 
	C32.285408,100.677383 32.241848,99.710922 32.102486,98.362976 
	C32.006680,97.981491 32.000401,98.010109 32.309631,98.139420 
	C33.085236,97.838074 33.551605,97.407417 34.017982,96.976768 
	C34.017982,96.976768 34.008110,97.014008 34.433243,97.093948 
	C38.418854,97.451424 41.979328,97.728966 45.539806,98.006508 
z"/>
<path fill="#7D7E81" opacity="1.000000" stroke="none" 
	d="
M35.182381,75.960556 
	C37.619270,76.060966 39.619392,76.163605 41.619511,76.266243 
	C41.633183,76.922325 41.646854,77.578400 41.660522,78.234474 
	C38.557178,78.428101 35.453835,78.621727 32.350491,78.815346 
	C32.212692,78.215408 32.074894,77.615463 31.937098,77.015526 
	C32.873268,76.664612 33.809441,76.313705 35.182381,75.960556 
z"/>
<path fill="#CCCDCD" opacity="1.000000" stroke="none" 
	d="
M45.298450,97.700378 
	C41.979328,97.728966 38.418854,97.451424 34.414345,97.090218 
	C37.799873,93.304649 41.428093,95.360680 45.298450,97.700378 
z"/>
<path fill="#CCCDCD" opacity="1.000000" stroke="none" 
	d="
M33.693401,96.888428 
	C33.551605,97.407417 33.085236,97.838074 32.294830,98.135628 
	C32.436806,97.601715 32.902813,97.200905 33.693401,96.888428 
z"/>
</svg>